<?xml version="1.0" encoding="utf-8"?>
<!-- Generator: Adobe Illustrator 24.0.0, SVG Export Plug-In . SVG Version: 6.00 Build 0)  -->
<svg version="1.1" id="Слой_1" xmlns="http://www.w3.org/2000/svg" xmlns:xlink="http://www.w3.org/1999/xlink" x="0px" y="0px"
	 viewBox="0 0 260 65" style="enable-background:new 0 0 260 65;" xml:space="preserve">
<style type="text/css">
	.st0{fill:none;stroke:#FF9900;}
</style>
<path class="st0" d="M11.6,17.8c0-1,0,2.3,0.1,23.5c0.1,26.5-6,14-6.1,0"/>
<path class="st0" d="M110.8,25.7c0,0.6,0-1.3,0-13.2c0-14.9,5-7.9,5,0"/>
<path class="st0" d="M243.8,25.6c0,0.6,0-1.3,0-13.2c0-14.9,5-7.9,5,0"/>
<path class="st0" d="M165.8,25.7c0,0.6,0-1.3,0-13.2c0-14.9,5-7.9,5,0"/>
<path class="st0" d="M254.8,25.6c0,0.6,0-1.3,0-13.2c0-14.9,5-7.9,5,0"/>
<path class="st0" d="M11.6,25.6c0,0.6,0-1.3,0-13.2c0-14.9,5-7.9,5,0"/>
<path class="st0" d="M99.7,25.7c0,0.6,0-1.3,0-13.2c0-14.9,5-7.9,5,0"/>
<path class="st0" d="M55.7,25.6c0,0.6,0-1.3,0-13.2c0-14.9,5-7.9,5,0"/>
<path class="st0" d="M188.6,25.6c0,0.6,0-1.3,0-13.2c0-14.9,5-7.9,5,0"/>
<path class="st0" d="M232.7,25.6c0,0.6,0-1.3,0-13.2c0-14.9,5-7.9,5,0"/>
<path class="st0" d="M121.8,25.7c0,0.6,0-1.3,0-13.2c0-14.9,5-7.9,5,0"/>
<path class="st0" d="M143.8,25.7c0,0.6,0-1.3,0-13.2c0-14.9,5-7.9,5,0"/>
<path class="st0" d="M22.7,25.6c0,0.6,0-1.3,0-13.2c0-14.9,5-7.9,5,0"/>
<path class="st0" d="M77.8,25.6c0,0.6,0-1.3,0-13.2c0-14.9,5-7.9,5,0"/>
<path class="st0" d="M33.7,25.6c0,0.6,0-1.3,0-13.2c0-14.9,5-7.9,5,0"/>
<path class="st0" d="M199.7,25.6c0,0.6,0-1.3,0-13.2c0-14.9,5-7.9,5,0"/>
<path class="st0" d="M210.7,25.6c0,0.6,0-1.3,0-13.2c0-14.9,5-7.9,5,0"/>
<path class="st0" d="M5.6,25.5c0,0.6,0-1.3,0-13.2c0-14.9-5-7.9-5,0"/>
<path class="st0" d="M66.8,25.6c0,0.6,0-1.3,0-13.2c0-14.9,5-7.9,5,0"/>
<path class="st0" d="M44.8,25.6c0,0.6,0-1.3,0-13.2c0-14.9,4.8-8.1,4.8-0.2"/>
<path class="st0" d="M154.8,25.7c0,0.6,0-1.3,0-13.2c0-14.9,5-7.9,5,0"/>
<path class="st0" d="M221.8,25.6c0,0.6,0-1.3,0-13.2c0-14.9,4.8-8.1,4.8-0.2"/>
<path class="st0" d="M176.9,25.7c0,0.6,0-1.3,0-13.2c0-14.9,5.6-7.8,5.6,0.1"/>
<path class="st0" d="M132.8,25.7c0,0.6,0-1.3,0-13.2c0-14.9,4.8-8.1,4.8-0.2"/>
<path class="st0" d="M88.8,25.6c0,0.6,0-1.3,0-13.2c0-14.9,4.7-8.1,4.7-0.2"/>
<path class="st0" d="M55.7,17.8c0-1,0,2.3,0.1,23.5c0.1,26.5-6.2,13.8-6.2-0.2"/>
<path class="st0" d="M188.6,17.8c0-1,0,2.3,0.1,23.5c0.1,26.5-6,14-6.1,0"/>
<path class="st0" d="M99.7,17.9c0-1,0,2.3,0.1,23.5c0.1,26.5-6,14-6.1,0"/>
<path class="st0" d="M232.6,17.8c0-1,0,2.3,0.1,23.5c0.1,26.5-6.1,13.8-6.1-0.2"/>
<path class="st0" d="M143.7,17.9c0-1,0,2.3,0.1,23.5c0.1,26.5-6.1,13.8-6.1-0.2"/>
<path class="st0" d="M33.7,17.8c0-1,0,2.3,0.1,23.5c0.1,26.5-6,14-6.1,0"/>
<path class="st0" d="M210.7,17.8c0-1,0,2.3,0.1,23.5c0.1,26.5-6,14-6.1,0"/>
<path class="st0" d="M77.8,17.8c0-1,0,2.3,0.1,23.5c0.1,26.5-6,14-6.1,0"/>
<path class="st0" d="M121.8,17.9c0-1,0,2.3,0.1,23.5c0.1,26.5-6,14-6.1,0"/>
<path class="st0" d="M254.8,17.8c0-1,0,2.3,0.1,23.5c0.1,26.5-6,14-6.1,0"/>
<path class="st0" d="M165.8,17.9c0-1,0,2.3,0.1,23.5c0.1,26.5-6,14-6.1,0"/>
<path class="st0" d="M22.7,17.8c0-1,0,2.3,0.1,23.5c0.1,26.5-6,14-6.1,0"/>
<path class="st0" d="M199.7,17.9c0-1,0,2.3,0.1,23.5c0.1,26.5-6,14-6.1,0"/>
<path class="st0" d="M110.8,17.9c0-1,0,2.3,0.1,23.5c0.1,26.5-6,14-6.1,0"/>
<path class="st0" d="M66.8,17.8c0-1,0,2.3,0.1,23.5c0.1,26.5-6,14-6.1,0"/>
<path class="st0" d="M243.8,17.9c0-1,0,2.3,0.1,23.5c0.1,26.5-6,14-6.1,0"/>
<path class="st0" d="M44.8,17.8c0-1,0,2.3,0.1,23.5c0.1,26.5-6,14-6.1,0"/>
<path class="st0" d="M154.8,17.9c0-1,0,2.3,0.1,23.5c0.1,26.5-6,14-6.1,0"/>
<path class="st0" d="M221.8,17.8c0-1,0,2.3,0.1,23.5c0.1,26.5-6,14-6.1,0"/>
<path class="st0" d="M132.8,17.9c0-1,0,2.3,0.1,23.5c0.1,26.5-6,14-6.1,0"/>
<path class="st0" d="M88.8,17.7c0-1,0,2.3,0.1,23.5c0.1,26.5-6,14-6.1,0"/>
<path class="st0" d="M176.9,17.9c0-1,0,2.3,0.1,23.5c0.1,26.5-6,14-6.1,0"/>
<path class="st0" d="M5.6,41.7v-30"/>
<path class="st0" d="M182.6,41.7l-0.1-29.1"/>
<path class="st0" d="M93.7,41.8l-0.1-30.1"/>
<path class="st0" d="M27.7,41.7v-30"/>
<path class="st0" d="M204.7,41.7v-30"/>
<path class="st0" d="M115.8,41.8v-30"/>
<path class="st0" d="M71.8,41.7v-30"/>
<path class="st0" d="M248.8,41.7v-30"/>
<path class="st0" d="M159.8,41.8v-30"/>
<path class="st0" d="M16.7,41.7l-0.1-30"/>
<path class="st0" d="M193.7,41.7l-0.1-30"/>
<path class="st0" d="M104.8,41.8l-0.1-30"/>
<path class="st0" d="M60.8,41.7l-0.1-30"/>
<path class="st0" d="M237.8,41.7l-0.1-30"/>
<path class="st0" d="M148.8,41.8l-0.1-30"/>
<path class="st0" d="M38.8,41.7l-0.1-30"/>
<path class="st0" d="M215.8,41.7l-0.1-30"/>
<path class="st0" d="M126.8,41.8l-0.1-30"/>
<path class="st0" d="M82.8,41.7l-0.1-30"/>
<path class="st0" d="M259.5,41.6l0.3-29.9"/>
<path class="st0" d="M0.5,41.6l0.1-30"/>
<path class="st0" d="M170.9,41.8l-0.1-30"/>
<path class="st0" d="M49.6,12.2v29"/>
<path class="st0" d="M137.7,12.3v29"/>
<path class="st0" d="M226.6,12.2v29"/>
</svg>
